{"title":"Cronaca Della Passera - Chronicle Of Sparrow (2000)","uid":6713566,"size":1049373136,"categoryP":"porn","categoryS":"movies","magnet":"?xt=urn:btih:a4a6b58c2c2277dc3669e8dfaec4c0076db57764&amp;dn=Cronaca+Della+Passera+-+Chronicle+Of+Sparrow+%282000%29&amp;tr=udp%3A%2F%2Ftracker.openbittorrent.com%3A80&amp;tr=udp%3A%2F%2Fopen.demonii.com%3A1337&amp;tr=udp%3A%2F%2Ftracker.coppersurfer.tk%3A6969&amp;tr=udp%3A%2F%2Fexodus.desync.com%3A6969","seeders":0,"leechers":0,"uploader":"silviuss","files":1,"time":1317456179,"description":"Cronaca Della Passera - Chronicle Of Sparrow (2000)\n\nCover: &lt;a href=&quot;\nhttp://imagebb.org/view.php?filename=519cover45cf5t4v45.jpg&quot; rel=&quot;nofollow&quot; target=&quot;_NEW&quot;&gt;\nhttp://imagebb.org/view.php?filename=519cover45cf5t4v45.jpg&lt;/a&gt;\n\nPreview: &lt;a href=&quot;\nhttp://imagebb.org/view.php?filename=878C.D.Passera_s.jpg&quot; rel=&quot;nofollow&quot; target=&quot;_NEW&quot;&gt;\nhttp://imagebb.org/view.php?filename=878C.D.Passera_s.jpg&lt;/a&gt;\n\nInfo:\nFormat                           : AVI\nFormat/Info                      : Audio Video Interleave\nFile size                        : 1 001 MiB\nDuration                         : 1h 22mn\nOverall bit rate                 : 1 701 Kbps\nWriting library                  : VirtualDub build 32817/release\n\nVideo\nID                               : 0\nFormat                           : MPEG-4 Visual\nFormat settings, BVOP            : 1\nFormat settings, QPel            : No\nFormat settings, GMC             : No warppoints\nFormat settings, Matrix          : Default (H.263)\nMuxing mode                      : Packed bitstream\nCodec ID                         : DX50\nCodec ID/Hint                    : DivX 5\nDuration                         : 1h 22mn\nBit rate                         : 1 500 Kbps\nWidth                            : 720 pixels\nHeight                           : 576 pixels\nDisplay aspect ratio             : 4:3\nFrame rate                       : 25.000 fps\nStandard                         : PAL\nColor space                      : YUV\nChroma subsampling               : 4:2:0\nBit depth                        : 8 bits\nScan type                        : Progressive\nCompression mode                 : Lossy\nBits/(Pixel*Frame)               : 0.145\nStream size                      : 882 MiB (88%)\nWriting library                  : DivX 6.6.1.4\n\nAudio\nID                               : 1\nFormat                           : AC-3\nFormat/Info                      : Audio Coding 3\nMode extension                   : CM (complete main)\nCodec ID                         : 2000\nDuration                         : 1h 22mn\nBit rate mode                    : Constant\nBit rate                         : 192 Kbps\nChannel(s)                       : 2 channels\nChannel positions                : Front: L R\nSampling rate                    : 48.0 KHz\nBit depth                        : 16 bits\nCompression mode                 : Lossy\nStream size                      : 113 MiB (11%)\nAlignment                        : Split accross interleaves\nInterleave, duration             : 40 ms (1.00 video frame)\nInterleave, preload duration     : 500 ms","torrent":{"xt":"urn:btih:a4a6b58c2c2277dc3669e8dfaec4c0076db57764","amp;dn":"Cronaca+Della+Passera+-+Chronicle+Of+Sparrow+%282000%29","amp;tr":["udp%3A%2F%2Ftracker.openbittorrent.com%3A80","udp%3A%2F%2Fopen.demonii.com%3A1337","udp%3A%2F%2Ftracker.coppersurfer.tk%3A6969","udp%3A%2F%2Fexodus.desync.com%3A6969"],"infoHash":"a4a6b58c2c2277dc3669e8dfaec4c0076db57764","infoHashBuffer":{"type":"Buffer","data":[164,166,181,140,44,34,119,220,54,105,232,223,174,196,192,7,109,181,119,100]},"announce":[],"urlList":[]}}